HIERARCHY
ROOT Hips
{
 OFFSET 0.000000 0.000000 0.000000
 CHANNELS 6 Xposition Yposition Zposition Yrotation Xrotation Zrotation
 JOINT Chest
 {
  OFFSET 0.000000 10.197069 -1.133008
  CHANNELS 3 Yrotation Xrotation Zrotation
  JOINT Chest2
  {
   OFFSET 0.000000 11.355210 0.000000
   CHANNELS 3 Yrotation Xrotation Zrotation
   JOINT Chest3
   {
    OFFSET 0.000000 10.366458 0.004940
    CHANNELS 3 Yrotation Xrotation Zrotation
    JOINT Chest4
    {
     OFFSET 0.000000 10.354886 0.004944
     CHANNELS 3 Yrotation Xrotation Zrotation
     JOINT Neck
     {
      OFFSET 0.000000 14.506032 0.000000
      CHANNELS 3 Yrotation Xrotation Zrotation
      JOINT Head
      {
       OFFSET 0.000000 9.639094 -0.010623
       CHANNELS 3 Yrotation Xrotation Zrotation
       End Site
       {
        OFFSET 0.000000 17.934630 -0.001429
       }
      }
     }
     JOINT RightCollar
     {
      OFFSET -3.145186 8.128426 0.000000
      CHANNELS 3 Yrotation Xrotation Zrotation
      JOINT RightShoulder
      {
       OFFSET -14.592063 0.000000 0.000000
       CHANNELS 3 Yrotation Xrotation Zrotation
       JOINT RightElbow
       {
        OFFSET -31.213829 0.000000 0.000000
        CHANNELS 3 Yrotation Xrotation Zrotation
        JOINT RightWrist
        {
         OFFSET -25.520924 0.000000 0.000000
         CHANNELS 3 Yrotation Xrotation Zrotation
         End Site
         {
          OFFSET -19.069033 0.000000 0.000000
         }
        }
       }
      }
     }
     JOINT LeftCollar
     {
      OFFSET 3.145186 8.128426 0.000000
      CHANNELS 3 Yrotation Xrotation Zrotation
      JOINT LeftShoulder
      {
       OFFSET 14.592063 0.000000 0.000000
       CHANNELS 3 Yrotation Xrotation Zrotation
       JOINT LeftElbow
       {
        OFFSET 31.213829 0.000000 0.000000
        CHANNELS 3 Yrotation Xrotation Zrotation
        JOINT LeftWrist
        {
         OFFSET 25.520924 0.000000 0.000000
         CHANNELS 3 Yrotation Xrotation Zrotation
         End Site
         {
          OFFSET 19.069033 0.000000 0.000000
         }
        }
       }
      }
     }
    }
   }
  }
 }
 JOINT RightHip
 {
  OFFSET -8.364037 -0.010941 0.001216
  CHANNELS 3 Yrotation Xrotation Zrotation
  JOINT RightKnee
  {
   OFFSET 0.000000 -43.586402 0.001168
   CHANNELS 3 Yrotation Xrotation Zrotation
   JOINT RightAnkle
   {
    OFFSET 0.000000 -42.569313 0.001969
    CHANNELS 3 Yrotation Xrotation Zrotation
    JOINT RightToe
    {
     OFFSET 0.000000 -6.445121 14.513325
     CHANNELS 3 Yrotation Xrotation Zrotation
     End Site
     {
      OFFSET 0.000000 -1.530243 6.458931
     }
    }
   }
  }
 }
 JOINT LeftHip
 {
  OFFSET 8.364037 -0.013239 0.001471
  CHANNELS 3 Yrotation Xrotation Zrotation
  JOINT LeftKnee
  {
   OFFSET 0.000000 -43.586402 0.001168
   CHANNELS 3 Yrotation Xrotation Zrotation
   JOINT LeftAnkle
   {
    OFFSET 0.000000 -42.569313 0.001969
    CHANNELS 3 Yrotation Xrotation Zrotation
    JOINT LeftToe
    {
     OFFSET 0.000000 -6.445121 14.513325
     CHANNELS 3 Yrotation Xrotation Zrotation
     End Site
     {
      OFFSET 0.000000 -1.530243 6.458931
     }
    }
   }
  }
 }
}
MOTION
Frames: 8
Frame Time: 0.016667
0.000000 93.953717 0.000000 0.000000 6.340192 0.000000 0.000000 -6.340192 0.000000 0.000000 -5.826342 0.000000 0.000000 -0.005910 0.000000 0.000000 5.832252 0.000000 0.000000 12.610213 0.000000 0.000000 -9.243752 0.000000 0.000000 0.000000 0.000000 0.000000 0.000000 0.000000 2.309063 0.000000 0.000000 -2.309063 0.000000 0.000000 0.000000 0.000000 0.000000 0.000000 0.000000 0.000000 -2.309063 0.000000 0.000000 2.309063 0.000000 0.000000 0.000000 -3.591006 0.000000 0.000000 1.872585 0.000000 0.000000 -4.621771 0.000000 0.000000 0.000000 0.000000 0.000000 -3.587706 0.000000 0.000000 1.905768 0.000000 0.000000 -4.658254 0.000000 0.000000 0.000000 0.000000
452.451021 93.388480 -913.258180 43.102494 -3.890043 0.212403 -7.132453 2.515326 -0.689077 -3.138209 -4.697852 -0.268328 -3.128194 1.113890 -0.586801 -2.389468 6.674961 -0.437529 -4.748260 12.899341 1.570101 -9.652068 -11.784190 4.915162 0.583620 3.126239 9.365082 99.449923 -2.559923 84.544401 24.349355 -65.932662 -31.991698 -12.443512 11.001572 3.427834 3.294941 5.241968 -6.997449 -25.337513 -8.871152 -76.081253 -9.186887 17.257223 -6.393696 11.082689 -2.487464 -4.296404 -30.983531 10.988688 -2.880177 0.040120 -6.477649 0.136869 -4.773243 -1.437241 -4.107100 0.000000 -0.000000 0.000000 -9.796735 6.720657 -0.193682 -1.035775 1.035643 -0.112584 -2.016926 -4.363319 1.635059 -0.000000 -0.000000 0.000000
452.381182 93.400701 -913.176602 43.089259 -3.858796 0.206700 -7.120773 2.520088 -0.678852 -3.133530 -4.695906 -0.263760 -3.123543 1.115864 -0.581759 -2.385601 6.676417 -0.433721 -4.746359 12.895820 1.568155 -9.647985 -11.791062 4.911061 0.571268 3.105961 9.359779 99.258116 -2.434938 84.525635 24.174585 -65.863196 -31.708455 -12.445272 10.996282 3.423410 3.287704 5.237572 -6.999202 -25.343105 -8.869443 -76.077235 -9.151353 17.216965 -6.350949 11.085360 -2.481833 -4.307417 -30.938331 10.955252 -2.848526 0.046240 -6.430801 0.152922 -4.782780 -1.483623 -4.130644 0.000000 0.000000 0.000000 -9.751243 6.695330 -0.161681 -1.048493 1.036299 -0.104569 -2.022922 -4.372228 1.609200 -0.000000 -0.000000 0.000000
452.310055 93.413185 -913.093575 43.075835 -3.827112 0.200879 -7.108897 2.525001 -0.668489 -3.128771 -4.693896 -0.259129 -3.118812 1.117904 -0.576646 -2.381668 6.677922 -0.429860 -4.744382 12.892257 1.566195 -9.643755 -11.798021 4.906907 0.558654 3.085327 9.354458 99.062700 -2.307848 84.506030 23.996599 -65.792093 -31.420558 -12.447128 10.990915 3.418865 3.280395 5.233112 -7.001008 -25.348812 -8.867803 -76.073179 -9.115068 17.175848 -6.307373 11.088162 -2.476115 -4.318543 -30.892379 10.921300 -2.816507 0.052520 -6.383321 0.169315 -4.792559 -1.530605 -4.154557 -0.000000 0.000000 0.000000 -9.705087 6.669489 -0.129236 -1.061391 1.037127 -0.096500 -2.028942 -4.381268 1.583010 -0.000000 0.000000 -0.000000
452.237753 93.425911 -913.009227 43.062239 -3.795029 0.194948 -7.096841 2.530052 -0.658001 -3.123938 -4.691827 -0.254442 -3.114008 1.120003 -0.571470 -2.377676 6.679471 -0.425950 -4.742336 12.888656 1.564223 -9.639391 -11.805059 4.902703 0.545802 3.064369 9.349120 98.863983 -2.178860 84.485600 23.815822 -65.719422 -31.128587 -12.449071 10.985478 3.414211 3.273020 5.228593 -7.002861 -25.354626 -8.866226 -76.069089 -9.078106 17.133939 -6.263049 11.091087 -2.470317 -4.329770 -30.845746 10.886876 -2.784156 0.058948 -6.335269 0.186020 -4.802556 -1.578132 -4.178808 -0.000000 -0.000000 -0.000000 -9.658326 6.643175 -0.096391 -1.074454 1.038111 -0.088381 -2.034983 -4.390425 1.556518 -0.000000 -0.000000 -0.000000
452.164391 93.438853 -912.923685 43.048487 -3.762586 0.188919 -7.084623 2.535227 -0.647401 -3.119039 -4.689704 -0.249705 -3.109137 1.122156 -0.566236 -2.373630 6.681059 -0.421997 -4.740226 12.885020 1.562237 -9.634907 -11.812167 4.898453 0.532736 3.043118 9.343769 98.662271 -2.048179 84.464359 23.632671 -65.645253 -30.833114 -12.451093 10.979977 3.409459 3.265586 5.224021 -7.004756 -25.360534 -8.864705 -76.064966 -9.040539 17.091308 -6.218059 11.094122 -2.464443 -4.341086 -30.798500 10.852019 -2.751512 0.065509 -6.286699 0.203011 -4.812746 -1.626152 -4.203367 -0.000000 0.000000 -0.000000 -9.611022 6.616429 -0.063190 -1.087666 1.039235 -0.080216 -2.041043 -4.399689 1.529754 0.000000 -0.000000 0.000000
452.090082 93.451990 -912.837078 43.034594 -3.729823 0.182799 -7.072257 2.540512 -0.636701 -3.114079 -4.687534 -0.244922 -3.104207 1.124356 -0.560951 -2.369535 6.682683 -0.418005 -4.738061 12.881353 1.560240 -9.630315 -11.819339 4.894162 0.519478 3.021606 9.338408 98.457872 -1.916011 84.442323 23.447558 -65.569663 -30.534702 -12.453184 10.974416 3.404621 3.258098 5.219401 -7.006689 -25.366527 -8.863234 -76.060814 -9.002442 17.048024 -6.172485 11.097257 -2.458501 -4.352481 -30.750711 10.816771 -2.718612 0.072190 -6.237669 0.220262 -4.823107 -1.674611 -4.228201 -0.000000 0.000000 -0.000000 -9.563232 6.589295 -0.029679 -1.101011 1.040484 -0.072011 -2.047120 -4.409048 1.502746 0.000000 0.000000 -0.000000
452.014940 93.465297 -912.749533 43.020578 -3.696776 0.176600 -7.059761 2.545894 -0.625916 -3.109066 -4.685322 -0.240101 -3.099224 1.126598 -0.555622 -2.365397 6.684338 -0.413980 -4.735847 12.877659 1.558232 -9.625629 -11.826567 4.889834 0.506051 2.999863 9.333039 98.251094 -1.782558 84.419514 23.260889 -65.492729 -30.233911 -12.455335 10.968803 3.399709 3.250564 5.214738 -7.008653 -25.372594 -8.861808 -76.056637 -8.963886 17.004154 -6.126409 11.100482 -2.452497 -4.363944 -30.702448 10.781173 -2.685493 0.078977 -6.188236 0.237746 -4.833613 -1.723454 -4.253281 0.000000 0.000000 -0.000000 -9.515018 6.561814 0.004101 -1.114473 1.041841 -0.063770 -2.053210 -4.418489 1.475522 0.000000 -0.000000 0.000000
